<?xml version="1.0" encoding="UTF-8"?>
<svg width="4119px" height="439px" viewBox="0 0 4119 439" version="1.1" xmlns="http://www.w3.org/2000/svg" xmlns:xlink="http://www.w3.org/1999/xlink">
    <!-- Generator: Sketch 50.2 (55047) - http://www.bohemiancoding.com/sketch -->
    <title>Desktop HD</title>
    <desc>Created with Sketch.</desc>
    <defs/>
    <g id="Desktop-HD" stroke="none" stroke-width="1" fill="none" fill-rule="evenodd">
        <path d="M1345,168.324459 C1440.48438,216.90843 1465.51373,72.688322 1581.17578,72.688322 C1670.375,72.688322 1720.80078,174.522013 1877.17578,174.522013 C1997.5794,174.522013 2079.1261,55.0335018 2138.30078,55.0335018 C2212.62383,55.0335018 2242.61719,109.639181 2324.96875,109.639181 C2407.08203,109.639181 2457.47266,38 2517.19141,38 C2602.33594,38 2616.25391,89.3779495 2656.92188,150.525056 C2684.03385,191.289793 2726.72656,197.222928 2785,168.324459 L2785,481 L1345,481 C1345.04167,318.738213 1345.04167,214.513033 1345,168.324459 Z" id="Rectangle-14" fill="#F1F1F1" transform="translate(2065.000000, 259.500000) scale(-1, 1) translate(-2065.000000, -259.500000) "/>
        <path d="M0,182.324459 C95.484375,230.90843 120.513731,86.688322 236.175781,86.688322 C325.375,86.688322 375.800781,188.522013 532.175781,188.522013 C652.579395,188.522013 734.126103,69.0335018 793.300781,69.0335018 C867.623833,69.0335018 897.617188,123.639181 979.96875,123.639181 C1062.08203,123.639181 1112.47266,52 1172.19141,52 C1257.33594,52 1271.25391,103.377949 1311.92188,164.525056 C1339.03385,205.289793 1381.72656,211.222928 1440,182.324459 L1440,495 L0,495 C0.0416666667,332.738213 0.0416666667,228.513033 0,182.324459 Z" id="Rectangle-14" fill="#F1F1F1" transform="translate(720.000000, 273.500000) scale(-1, 1) translate(-720.000000, -273.500000) "/>
        <path d="M2682,147.324459 C2777.48438,195.90843 2802.51373,51.688322 2918.17578,51.688322 C3007.375,51.688322 3057.80078,153.522013 3214.17578,153.522013 C3334.5794,153.522013 3416.1261,34.0335018 3475.30078,34.0335018 C3549.62383,34.0335018 3579.61719,88.6391807 3661.96875,88.6391807 C3744.08203,88.6391807 3794.47266,17 3854.19141,17 C3939.33594,17 3953.25391,68.3779495 3993.92188,129.525056 C4021.03385,170.289793 4063.72656,176.222928 4122,147.324459 L4122,460 L2682,460 C2682.04167,297.738213 2682.04167,193.513033 2682,147.324459 Z" id="Rectangle-14" fill="#F1F1F1" transform="translate(3402.000000, 238.500000) scale(-1, 1) translate(-3402.000000, -238.500000) "/>
    </g>
</svg>